<svg clip-rule="evenodd" fill-rule="evenodd" stroke-linejoin="round" stroke-miterlimit="2" viewBox="0 0 77 66" xmlns="http://www.w3.org/2000/svg"><path d="m72.325 33.234v-2.947c0-5.389-3.698-9.919-8.686-11.217l-.009-4.859c0-4.742-3.859-8.601-8.603-8.601h-.455l-40.262 12.49c-.917.053-1.787.265-2.604.584h-.105c-6.396 0-11.601 5.205-11.601 11.603v28.804c0 6.397 5.204 11.603 11.601 11.603h49.123c6.396 0 11.601-5.205 11.601-11.603v-3.831c2.323-.899 3.979-3.151 3.979-5.789v-10.45c-.001-2.636-1.656-4.888-3.979-5.787zm-2.022 16.236c0 .118-.093.211-.211.211h-16.241c-.118 0-.21-.093-.21-.211v-10.449c0-.115.094-.209.21-.209h16.241c.116 0 .211.094.211.209zm-14.905-37.833c1.261.18 2.232 1.266 2.232 2.579l.008 4.469h-24.959zm5.326 53.056h-49.122c-3.093 0-5.601-2.509-5.601-5.603v-28.803c0-3.095 2.508-5.603 5.601-5.603h49.122c3.094 0 5.601 2.508 5.601 5.603v2.525h-12.474c-3.424 0-6.21 2.785-6.21 6.209v10.449c0 3.425 2.786 6.211 6.21 6.211h12.474v3.41c0 3.093-2.507 5.602-5.601 5.602z" fill="#7a8294" fill-rule="nonzero" transform="translate(0 -5.61)"/></svg>